<svg width="18" height="23" viewBox="0 0 18 23" fill="none" xmlns="http://www.w3.org/2000/svg">
<path d="M9 0.5C11.3869 0.5 13.6761 1.49337 15.364 3.26159C17.0518 5.0298 18 7.42801 18 9.92865C18 14.434 15.0975 18.581 9.402 22.3776C9.28181 22.4575 9.14237 22.5 9 22.5C8.85763 22.5 8.71819 22.4575 8.598 22.3776C2.9025 18.581 0 14.434 0 9.92865C0 7.42801 0.948211 5.0298 2.63604 3.26159C4.32387 1.49337 6.61305 0.5 9 0.5ZM9 6.78576C8.20435 6.78576 7.44129 7.11689 6.87868 7.70629C6.31607 8.2957 6 9.0951 6 9.92865C6 10.7622 6.31607 11.5616 6.87868 12.151C7.44129 12.7404 8.20435 13.0715 9 13.0715C9.79565 13.0715 10.5587 12.7404 11.1213 12.151C11.6839 11.5616 12 10.7622 12 9.92865C12 9.0951 11.6839 8.2957 11.1213 7.70629C10.5587 7.11689 9.79565 6.78576 9 6.78576Z" fill="#F78E48"/>
</svg>
