<svg width="762" height="490" viewBox="0 0 762 490" fill="none" xmlns="http://www.w3.org/2000/svg">
<g opacity="0.3" filter="url(#filter0_f_6_105)">
<path fill-rule="evenodd" clip-rule="evenodd" d="M537.66 68.8573C525.874 106.045 498.899 134.493 474.466 164.819C453.416 190.947 430.983 214.24 404.253 234.446C374.481 256.953 346.402 288.277 309.185 289.766C271.847 291.261 240.491 263.444 209.645 242.235C180.643 222.293 159.993 194.816 134.992 169.993C100.776 136.018 41.7251 116.742 35.0318 68.8573C28.5612 22.5663 75.5316 -13.363 104.222 -50.1434C129.649 -82.7408 158.031 -111.613 192.953 -133.594C228.812 -156.166 267.33 -185.342 309.185 -179.158C350.972 -172.984 368.739 -119.396 407.24 -101.933C452.124 -81.5755 519.02 -109.655 549.009 -70.3833C577.702 -32.8078 551.966 23.7181 537.66 68.8573Z" fill="#FF3400"/>
</g>
<defs>
<filter id="filter0_f_6_105" x="-165.573" y="-380" width="927.573" height="869.824" filterUnits="userSpaceOnUse" color-interpolation-filters="sRGB">
<feFlood flood-opacity="0" result="BackgroundImageFix"/>
<feBlend mode="normal" in="SourceGraphic" in2="BackgroundImageFix" result="shape"/>
<feGaussianBlur stdDeviation="100" result="effect1_foregroundBlur_6_105"/>
</filter>
</defs>
</svg>
