<svg width="599" height="792" viewBox="0 0 599 792" fill="none" xmlns="http://www.w3.org/2000/svg">
<g opacity="0.2" filter="url(#filter0_f_6_96)">
<path fill-rule="evenodd" clip-rule="evenodd" d="M843.982 407.211C827.027 451.773 788.219 485.863 753.069 522.204C722.784 553.514 690.51 581.426 652.056 605.64C609.223 632.61 568.828 670.146 515.284 671.931C461.568 673.722 416.457 640.389 372.079 614.973C330.355 591.077 300.646 558.15 264.679 528.404C215.453 487.691 130.499 464.592 120.87 407.211C111.561 351.739 179.135 308.685 220.411 264.61C256.992 225.548 297.825 190.95 348.065 164.609C399.654 137.561 455.069 102.598 515.284 110.009C575.401 117.407 600.963 181.623 656.352 202.549C720.926 226.944 817.166 193.296 860.31 240.356C901.59 285.384 864.564 353.12 843.982 407.211Z" fill="#FF3400"/>
</g>
<defs>
<filter id="filter0_f_6_96" x="-3.05176e-05" y="20" width="999" height="803" filterUnits="userSpaceOnUse" color-interpolation-filters="sRGB">
<feFlood flood-opacity="0" result="BackgroundImageFix"/>
<feBlend mode="normal" in="SourceGraphic" in2="BackgroundImageFix" result="shape"/>
<feGaussianBlur stdDeviation="60" result="effect1_foregroundBlur_6_96"/>
</filter>
</defs>
</svg>
