<svg width="570" height="805" viewBox="0 0 570 805" fill="none" xmlns="http://www.w3.org/2000/svg">
<g opacity="0.4" filter="url(#filter0_f_6_97)">
<path fill-rule="evenodd" clip-rule="evenodd" d="M881.183 441.517C863.356 489.562 822.554 526.316 785.598 565.497C753.758 599.254 719.825 629.347 679.394 655.453C634.361 684.532 591.89 725.001 535.595 726.925C479.119 728.856 431.69 692.918 385.032 665.516C341.164 639.752 309.929 604.252 272.114 572.181C220.358 528.287 131.039 503.382 120.914 441.517C111.127 381.71 182.174 335.291 225.57 287.771C264.032 245.656 306.962 208.354 359.784 179.955C414.024 150.793 472.286 113.098 535.595 121.087C598.801 129.064 625.677 198.299 683.912 220.86C751.803 247.162 852.989 210.883 898.35 261.622C941.751 310.168 902.822 383.198 881.183 441.517Z" fill="#FFB752"/>
</g>
<defs>
<filter id="filter0_f_6_97" x="-3.05176e-05" y="0" width="1038" height="847" filterUnits="userSpaceOnUse" color-interpolation-filters="sRGB">
<feFlood flood-opacity="0" result="BackgroundImageFix"/>
<feBlend mode="normal" in="SourceGraphic" in2="BackgroundImageFix" result="shape"/>
<feGaussianBlur stdDeviation="60" result="effect1_foregroundBlur_6_97"/>
</filter>
</defs>
</svg>
